<svg xmlns="http://www.w3.org/2000/svg" xmlns:xlink="http://www.w3.org/1999/xlink" width="500" zoomAndPan="magnify" viewBox="0 0 375 374.999991" height="500" preserveAspectRatio="xMidYMid meet" version="1.0"><defs><clipPath id="a68acf5e62"><path d="M 33 0 L 285 0 L 285 177 L 33 177 Z M 33 0 " clip-rule="nonzero"/></clipPath><clipPath id="291f30b3b6"><path d="M 273.269531 -4.675781 L 288.800781 18.6875 L 44.515625 181.078125 L 28.984375 157.710938 Z M 273.269531 -4.675781 " clip-rule="nonzero"/></clipPath><clipPath id="a304dd3835"><path d="M 279.882812 5.46875 L 282.066406 8.753906 C 285.734375 14.273438 284.234375 21.722656 278.714844 25.390625 L 54.515625 174.429688 C 48.996094 178.097656 41.546875 176.597656 37.878906 171.078125 L 35.691406 167.792969 C 32.023438 162.273438 33.523438 154.824219 39.042969 151.15625 L 263.246094 2.117188 C 268.761719 -1.550781 276.210938 -0.0507812 279.882812 5.46875 Z M 279.882812 5.46875 " clip-rule="nonzero"/></clipPath><clipPath id="f49b2851dd"><path d="M 35 151 L 296 151 L 296 285 L 35 285 Z M 35 151 " clip-rule="nonzero"/></clipPath><clipPath id="74e2c810df"><path d="M 41.859375 148.046875 L 298.78125 266.265625 L 288.472656 288.667969 L 31.550781 170.449219 Z M 41.859375 148.046875 " clip-rule="nonzero"/></clipPath><clipPath id="f68ee0e532"><path d="M 52.078125 152.75 L 288.535156 261.554688 C 291.246094 262.800781 293.351562 265.074219 294.386719 267.871094 C 295.421875 270.671875 295.300781 273.765625 294.054688 276.476562 L 293.152344 278.4375 C 291.902344 281.148438 289.628906 283.253906 286.832031 284.285156 C 284.035156 285.320312 280.9375 285.203125 278.226562 283.957031 L 41.769531 175.152344 C 39.058594 173.90625 36.957031 171.632812 35.921875 168.832031 C 34.886719 166.035156 35.003906 162.9375 36.253906 160.230469 L 37.15625 158.265625 C 38.402344 155.554688 40.675781 153.453125 43.472656 152.417969 C 46.273438 151.382812 49.367188 151.503906 52.078125 152.75 Z M 52.078125 152.75 " clip-rule="nonzero"/></clipPath><clipPath id="48c18b2c50"><path d="M 112 97 L 330 97 L 330 211 L 112 211 Z M 112 97 " clip-rule="nonzero"/></clipPath><clipPath id="a1fb1d3fba"><path d="M 119.316406 93.398438 L 333.097656 191.765625 L 322.789062 214.167969 L 109.007812 115.800781 Z M 119.316406 93.398438 " clip-rule="nonzero"/></clipPath><clipPath id="890c11c6f9"><path d="M 129.535156 98.101562 L 322.824219 187.039062 C 325.535156 188.285156 327.636719 190.558594 328.671875 193.355469 C 329.707031 196.15625 329.585938 199.25 328.339844 201.960938 L 327.4375 203.921875 C 326.191406 206.632812 323.917969 208.738281 321.117188 209.773438 C 318.320312 210.808594 315.226562 210.6875 312.515625 209.441406 L 119.226562 120.5 C 116.519531 119.253906 114.414062 116.980469 113.378906 114.183594 C 112.34375 111.382812 112.464844 108.289062 113.710938 105.578125 L 114.613281 103.617188 C 115.859375 100.90625 118.132812 98.800781 120.933594 97.769531 C 123.730469 96.734375 126.824219 96.851562 129.535156 98.101562 Z M 129.535156 98.101562 " clip-rule="nonzero"/></clipPath><clipPath id="fa0978cbfb"><path d="M 111 140 L 235 140 L 235 375 L 111 375 Z M 111 140 " clip-rule="nonzero"/></clipPath><clipPath id="5f18ff94ba"><path d="M 213.433594 136.582031 L 238.917969 148.3125 L 133.140625 378.195312 L 107.652344 366.46875 Z M 213.433594 136.582031 " clip-rule="nonzero"/></clipPath><clipPath id="5ccdab67ab"><path d="M 224.386719 141.746094 L 227.972656 143.394531 C 233.992188 146.164062 236.628906 153.289062 233.859375 159.3125 L 138.191406 367.214844 C 135.421875 373.234375 128.296875 375.871094 122.277344 373.101562 L 118.691406 371.449219 C 112.667969 368.679688 110.035156 361.554688 112.804688 355.535156 L 208.46875 147.628906 C 211.238281 141.609375 218.367188 138.972656 224.386719 141.746094 Z M 224.386719 141.746094 " clip-rule="nonzero"/></clipPath></defs><g clip-path="url(#a68acf5e62)"><g clip-path="url(#291f30b3b6)"><g clip-path="url(#a304dd3835)"><path fill="currentColor" d="M 273.238281 -4.527344 L 288.710938 18.746094 L 44.515625 181.078125 L 29.042969 157.800781 Z M 273.238281 -4.527344 " fill-opacity="1" fill-rule="nonzero"/></g></g></g><g clip-path="url(#f49b2851dd)"><g clip-path="url(#74e2c810df)"><g clip-path="url(#f68ee0e532)"><path fill="currentColor" d="M 41.859375 148.046875 L 298.78125 266.265625 L 288.472656 288.667969 L 31.550781 170.449219 Z M 41.859375 148.046875 " fill-opacity="1" fill-rule="nonzero"/></g></g></g><g clip-path="url(#48c18b2c50)"><g clip-path="url(#a1fb1d3fba)"><g clip-path="url(#890c11c6f9)"><path fill="currentColor" d="M 119.316406 93.398438 L 333.011719 191.726562 L 322.703125 214.128906 L 109.007812 115.800781 Z M 119.316406 93.398438 " fill-opacity="1" fill-rule="nonzero"/></g></g></g><g clip-path="url(#fa0978cbfb)"><g clip-path="url(#5f18ff94ba)"><g clip-path="url(#5ccdab67ab)"><path fill="currentColor" d="M 213.484375 136.726562 L 238.875 148.410156 L 133.1875 378.09375 L 107.796875 366.414062 Z M 213.484375 136.726562 " fill-opacity="1" fill-rule="nonzero"/></g></g></g></svg>