<svg xmlns="http://www.w3.org/2000/svg" xmlns:xlink="http://www.w3.org/1999/xlink" width="500" zoomAndPan="magnify" viewBox="0 0 375 374.999991" height="500" preserveAspectRatio="xMidYMid meet" version="1.0"><defs><clipPath id="5c948be478"><path d="M 107 91 L 245 91 L 245 188 L 107 188 Z M 107 91 " clip-rule="nonzero"/></clipPath><clipPath id="9b132b6230"><path d="M 238.550781 88.121094 L 247.054688 100.914062 L 112.832031 190.140625 L 104.328125 177.347656 Z M 238.550781 88.121094 " clip-rule="nonzero"/></clipPath><clipPath id="1b14ca16a5"><path d="M 242.804688 94.515625 C 243.933594 96.210938 244.339844 98.289062 243.9375 100.285156 C 243.535156 102.28125 242.355469 104.035156 240.660156 105.164062 L 119.230469 185.882812 C 117.535156 187.011719 115.460938 187.421875 113.464844 187.019531 C 111.464844 186.617188 109.710938 185.4375 108.582031 183.742188 C 107.457031 182.042969 107.046875 179.96875 107.449219 177.972656 C 107.851562 175.976562 109.03125 174.21875 110.726562 173.09375 L 232.15625 92.371094 C 233.851562 91.246094 235.925781 90.835938 237.925781 91.238281 C 239.921875 91.640625 241.675781 92.820312 242.804688 94.515625 Z M 242.804688 94.515625 " clip-rule="nonzero"/></clipPath><clipPath id="20112838ec"><path d="M 107 174 L 251 174 L 251 248 L 107 248 Z M 107 174 " clip-rule="nonzero"/></clipPath><clipPath id="455e0be4e0"><path d="M 111.371094 171.984375 L 252.59375 236.964844 L 246.925781 249.277344 L 105.707031 184.296875 Z M 111.371094 171.984375 " clip-rule="nonzero"/></clipPath><clipPath id="f2a3bfbf1a"><path d="M 117.527344 174.816406 L 246.421875 234.125 C 249.824219 235.691406 251.308594 239.714844 249.746094 243.117188 C 248.179688 246.515625 244.15625 248.003906 240.757812 246.4375 L 111.863281 187.128906 C 108.460938 185.566406 106.972656 181.539062 108.539062 178.140625 C 110.101562 174.738281 114.128906 173.253906 117.527344 174.816406 Z M 117.527344 174.816406 " clip-rule="nonzero"/></clipPath><clipPath id="96775b6cd9"><path d="M 150 144 L 270 144 L 270 207 L 150 207 Z M 150 144 " clip-rule="nonzero"/></clipPath><clipPath id="27674954b6"><path d="M 153.949219 141.945312 L 271.457031 196.015625 L 265.789062 208.328125 L 148.28125 154.257812 Z M 153.949219 141.945312 " clip-rule="nonzero"/></clipPath><clipPath id="8bdc686bb6"><path d="M 160.105469 144.777344 L 265.269531 193.167969 C 268.667969 194.734375 270.15625 198.757812 268.59375 202.15625 C 267.027344 205.558594 263.003906 207.046875 259.601562 205.480469 L 154.4375 157.089844 C 151.039062 155.527344 149.550781 151.5 151.113281 148.101562 C 152.679688 144.699219 156.703125 143.214844 160.105469 144.777344 Z M 160.105469 144.777344 " clip-rule="nonzero"/></clipPath><clipPath id="b34bd06c4c"><path d="M 150 168 L 218 168 L 218 296 L 150 296 Z M 150 168 " clip-rule="nonzero"/></clipPath><clipPath id="08111fb771"><path d="M 205.707031 165.761719 L 219.664062 172.183594 L 161.546875 298.488281 L 147.589844 292.066406 Z M 205.707031 165.761719 " clip-rule="nonzero"/></clipPath><clipPath id="9ecbed828d"><path d="M 212.6875 168.972656 C 214.535156 169.824219 215.972656 171.375 216.679688 173.285156 C 217.386719 175.199219 217.304688 177.308594 216.453125 179.160156 L 164.777344 291.46875 C 163.925781 293.316406 162.375 294.753906 160.460938 295.460938 C 158.550781 296.167969 156.4375 296.085938 154.589844 295.234375 C 152.738281 294.382812 151.300781 292.832031 150.59375 290.921875 C 149.886719 289.007812 149.96875 286.898438 150.820312 285.046875 L 202.5 172.738281 C 203.351562 170.890625 204.902344 169.453125 206.8125 168.746094 C 208.722656 168.039062 210.835938 168.121094 212.6875 168.972656 Z M 212.6875 168.972656 " clip-rule="nonzero"/></clipPath></defs><g clip-path="url(#5c948be478)"><g clip-path="url(#9b132b6230)"><g clip-path="url(#1b14ca16a5)"><path fill="currentColor" d="M 238.550781 88.121094 L 247.054688 100.914062 L 112.832031 190.140625 L 104.328125 177.347656 Z M 238.550781 88.121094 " fill-opacity="1" fill-rule="nonzero"/></g></g></g><g clip-path="url(#20112838ec)"><g clip-path="url(#455e0be4e0)"><g clip-path="url(#f2a3bfbf1a)"><path fill="currentColor" d="M 111.371094 171.984375 L 252.59375 236.964844 L 246.925781 249.277344 L 105.707031 184.296875 Z M 111.371094 171.984375 " fill-opacity="1" fill-rule="nonzero"/></g></g></g><g clip-path="url(#96775b6cd9)"><g clip-path="url(#27674954b6)"><g clip-path="url(#8bdc686bb6)"><path fill="currentColor" d="M 153.949219 141.945312 L 271.40625 195.992188 L 265.742188 208.304688 L 148.28125 154.257812 Z M 153.949219 141.945312 " fill-opacity="1" fill-rule="nonzero"/></g></g></g><g clip-path="url(#b34bd06c4c)"><g clip-path="url(#08111fb771)"><g clip-path="url(#9ecbed828d)"><path fill="currentColor" d="M 205.707031 165.761719 L 219.664062 172.183594 L 161.570312 298.433594 L 147.617188 292.011719 Z M 205.707031 165.761719 " fill-opacity="1" fill-rule="nonzero"/></g></g></g></svg>